# xmcd CD database file
#
# Track frame offsets:
#	150
#	21157
#	38397
#	54120
#	72820
#	86057
#	104160
#	120400
#	145587
#	162367
#
# Disc length: 2385 seconds
#
# Revision: 2
# Processed by: cddbd v1.5.1PL2 Copyright (c) Steve Scherf et al.
# Submitted via: CDex 1.51
#
DISCID=78094f0a
DTITLE=Rory Gallagher - Top Priority
DYEAR=1979
DGENRE=Rock
TTITLE0=Follow Me
TTITLE1=Philby
TTITLE2=Wayward Child
TTITLE3=Keychain
TTITLE4=At The Depot
TTITLE5=Bad Penny
TTITLE6=Just Hit Town
TTITLE7=Off The Handle
TTITLE8=Public Enemy No 1
TTITLE9=Nothing But The Devil
EXTD=YEAR: 1979
EXTT0=
EXTT1=
EXTT2=
EXTT3=
EXTT4=
EXTT5=
EXTT6=
EXTT7=
EXTT8=
EXTT9=
PLAYORDER=
